<svg xmlns="http://www.w3.org/2000/svg" viewBox="0 0 128 128" width="128" height="128">
  <!-- Levora mark: a wave running into a ceiling and flattening against it.
       Reads as audio at 16 px; the flat tops read as "held" once there is room
       for them. Generated geometry lives in tools/render-icons.mjs; keep the two
       in step. -->
  <rect width="128" height="128" rx="27" fill="#1C1C1E"/>
  <polyline fill="none" stroke="#5AC8FA" stroke-width="14"
    stroke-linecap="round" stroke-linejoin="round"
    points="20.00,64.00 21.47,61.03 22.93,58.13 24.40,55.37 25.87,52.83 27.33,50.56 28.80,48.63 30.27,47.07 31.73,45.93 33.20,45.23 34.67,45.00 36.13,45.23 37.60,45.93 39.07,47.07 40.53,48.63 42.00,50.56 43.47,52.83 44.93,55.37 46.40,58.13 47.87,61.03 49.33,64.00 50.80,66.97 52.27,69.87 53.73,72.63 55.20,75.17 56.67,77.44 58.13,79.37 59.60,80.93 61.07,82.07 62.53,82.77 64.00,83.00 65.47,82.77 66.93,82.07 68.40,80.93 69.87,79.37 71.33,77.44 72.80,75.17 74.27,72.63 75.73,69.87 77.20,66.97 78.67,64.00 80.13,61.03 81.60,58.13 83.07,55.37 84.53,52.83 86.00,50.56 87.47,48.63 88.93,47.07 90.40,45.93 91.87,45.23 93.33,45.00 94.80,45.23 96.27,45.93 97.73,47.07 99.20,48.63 100.67,50.56 102.13,52.83 103.60,55.37 105.07,58.13 106.53,61.03 108.00,64.00"/>
</svg>
